<svg id="Layer_1" data-name="Layer 1" xmlns="http://www.w3.org/2000/svg" width="155.938" height="155.938" viewBox="0 0 155.938 155.938">
  <path id="Path_291" data-name="Path 291" d="M144.957,60.654l-6.5-4.938c.845-2.989,1.559-5.523,2.209-7.732,2.6-8.707,4.028-13.515.455-18.453s-8.447-5.133-17.673-5.393h-8.057c-1.1-2.859-1.949-5.393-2.729-7.537-2.989-8.577-4.678-12.995-10.526-15.2s-9.941.91-17.478,6.108l-6.5,4.483-6.5-4.353C64.974,2.373,60.036-.876,54.123,1.073S46.651,7.571,43.6,16.212q-1.17,3.216-2.729,7.6l-8.382.26c-9.1,0-14.1.325-17.673,5.263s-1.819,9.746.65,18.518c.65,2.209,1.429,4.743,2.209,7.732l-6.5,4.938C4.093,65.982,0,69.036,0,75.209S3.963,84.37,11.176,89.893l6.5,4.938c-.78,2.989-1.559,5.523-2.209,7.732-2.6,8.707-4.028,13.515-.455,18.453s8.642,5.068,17.673,5.328h7.992c1.1,2.859,1.949,5.393,2.729,7.537,3.054,8.577,4.678,12.995,10.526,15.2s9.941-.91,17.478-6.108l6.5-4.483,6.5,4.353a27.289,27.289,0,0,0,14.229,6.5,11.111,11.111,0,0,0,3.444-.585c5.848-1.884,7.472-6.5,10.526-15.139.78-2.144,1.624-4.678,2.729-7.537h8.057c9.1,0,14.1-.325,17.673-5.328s2.209-9.746-.39-18.453c-.65-2.209-1.429-4.743-2.209-7.732l6.5-4.938c7.147-5.133,10.981-7.927,10.981-14.424s-3.833-9.031-10.981-14.554Z" transform="translate(0 2.76)" fill="#8dc63f"/>
  <path id="Path_292" data-name="Path 292" d="M31.878,66.45a6.5,6.5,0,0,1-4.613-2.209L8.1,42.865a6.513,6.513,0,1,1,9.746-8.642L32.268,50.531,73.4,10.507A6.5,6.5,0,1,1,82.428,19.8l-46,44.962A6.5,6.5,0,0,1,31.878,66.45Z" transform="translate(35.5 45.695)" fill="#fff"/>
  <path id="Path_293" data-name="Path 293" d="M0,0H155.938V155.938H0Z" fill="none"/>
</svg>
