<svg xmlns="http://www.w3.org/2000/svg" width="23.834" height="26.042" viewBox="0 0 23.834 26.042">
  <g id="Group_219" data-name="Group 219" transform="translate(-231.082 -780.099)">
    <g id="front-of-bus" transform="translate(231.082 780.099)">
      <path id="Path_138" data-name="Path 138" d="M24.552,6.367c-.213-2.079-.551-3.7-1.087-4.334C21.255-.582,5.778-.773,4.021,2.034a12.465,12.465,0,0,0-.934,4.337,1.311,1.311,0,0,0-1.161,1.3v2.546a1.312,1.312,0,0,0,.86,1.23c-.119,4.011-.022,8.2.155,10.276,0,1.607,1.079,1.34,1.079,1.34H5.032V24.8a1.444,1.444,0,0,0,1.582,1.244A1.445,1.445,0,0,0,8.2,24.8V23.063H19.967V24.8a1.444,1.444,0,0,0,1.583,1.244A1.444,1.444,0,0,0,23.132,24.8V23.063h.332s1.27.174,1.351-.582c0-2.075.131-6.675.023-11.016a1.306,1.306,0,0,0,.921-1.248V7.67A1.309,1.309,0,0,0,24.552,6.367ZM7.8,2.407H19.685V4.2H7.8Zm.17,18.608a1.689,1.689,0,1,1,1.69-1.69A1.689,1.689,0,0,1,7.97,21.015Zm11.651,0a1.689,1.689,0,1,1,1.689-1.69A1.691,1.691,0,0,1,19.621,21.015Zm2.148-7.394H5.717V5.2H21.769Z" transform="translate(-1.926 0)" fill="#4d4d4d"/>
    </g>
  </g>
</svg>
