<svg id="Layer_1" enable-background="new 0 0 512 512" height="512" viewBox="0 0 512 512" width="512" xmlns="http://www.w3.org/2000/svg"><g clip-rule="evenodd" fill-rule="evenodd"><path d="m41.5 158.4c0-5.9001 4.8259-10.725 10.725-10.725h75.075v85.8h-85.8zm107.25-10.725h85.8v85.8h-85.8zm107.25 0h85.8v85.8h-85.8zm107.25 0h71.3215c10.1884 0 19.3051 7.5061 20.9135 17.6935l12.334 76.1503c1.0724 8.0437 2.1451 16.0875 2.1451 24.1312h-74.5391l-32.175-32.175zm-343.2 0v193.05c0 11.7968 9.6525 21.45 21.45 21.45h1.0725c-.5359-3.2189-1.0725-6.972-1.0725-10.725 0-29.4937 24.1315-53.625 53.625-53.625 29.494 0 53.625 24.1313 53.625 53.625 0 3.7531-.5359 7.5061-1.0724 10.725h195.1949c-.5359-3.2189-1.0725-6.972-1.0725-10.725 0-29.4937 24.1315-53.625 53.625-53.625 29.494 0 53.625 24.1313 53.625 53.625 0 3.7531-.5359 7.5061-1.0724 10.725h22.5224c11.7975 0 21.45-9.6532 21.45-21.45v-68.6407c0-11.2627-1.0727-23.0595-2.6808-34.3221l-12.3342-76.681c-3.7535-20.3782-21.45-35.3939-42.3635-35.3939h-393.0715c-11.7975.5377-21.45 10.1874-21.45 21.9877z"/><path d="m432.9625 351.45c0 20.7308-16.8058 37.5375-37.5375 37.5375s-37.5375-16.8067-37.5375-37.5375 16.8058-37.5375 37.5375-37.5375 37.5375 16.8067 37.5375 37.5375z"/><path d="m132.6625 351.45c0 20.7308-16.8058 37.5375-37.5375 37.5375s-37.5375-16.8067-37.5375-37.5375 16.8058-37.5375 37.5375-37.5375 37.5375 16.8067 37.5375 37.5375z"/></g></svg>