<svg xmlns="http://www.w3.org/2000/svg" width="28.345" height="28.348" viewBox="0 0 28.345 28.348">
  <g id="Group_217" data-name="Group 217" transform="translate(-50.919 -780.099)">
    <path id="home" d="M27.583,12.33l0,0L16.018.765a2.609,2.609,0,0,0-3.691,0L.769,12.322l-.012.012A2.609,2.609,0,0,0,2.494,16.78q.04,0,.08,0h.461v8.51A3.058,3.058,0,0,0,6.09,28.348h4.524a.831.831,0,0,0,.831-.831V20.846a1.4,1.4,0,0,1,1.393-1.393h2.668A1.4,1.4,0,0,1,16.9,20.846v6.672a.83.83,0,0,0,.831.831h4.524a3.058,3.058,0,0,0,3.055-3.054v-8.51h.427a2.61,2.61,0,0,0,1.847-4.454Zm0,0" transform="translate(50.919 780.099)" fill="#4667c0"/>
  </g>
</svg>
