<svg xmlns="http://www.w3.org/2000/svg" width="28.43" height="29.666" viewBox="0 0 28.43 29.666">
  <g id="Group_221" data-name="Group 221" transform="translate(-331.57 -86.667)">
    <path id="Path_129" data-name="Path 129" d="M137.889,346.277a4.944,4.944,0,1,1-4.945-4.945A4.944,4.944,0,0,1,137.889,346.277Zm0,0" transform="translate(210.986 -234.888)" fill="#4667c1"/>
    <path id="Path_130" data-name="Path 130" d="M21.024,54.931A8.633,8.633,0,0,1,14.33,42.9,8.623,8.623,0,0,0,3.708,51.321v3.446A8.288,8.288,0,0,1,.756,61.112a2.163,2.163,0,0,0,1.407,3.806h20.4A2.163,2.163,0,0,0,23.953,61.1,8.277,8.277,0,0,1,21.024,54.931Zm0,0" transform="translate(331.57 46.471)" fill="#4667c1"/>
    <path id="Path_131" data-name="Path 131" d="M289.693,6.181A6.181,6.181,0,1,1,283.513,0,6.18,6.18,0,0,1,289.693,6.181Zm0,0" transform="translate(70.307 86.667)" fill="#4667c1"/>
  </g>
</svg>
