<svg xmlns="http://www.w3.org/2000/svg" width="27.924" height="27.923" viewBox="0 0 27.924 27.923">
  <g id="Group_239" data-name="Group 239" transform="translate(-311.915 -862.218)">
    <g id="profile-user" transform="translate(311.915 862.218)">
      <path id="Path_139" data-name="Path 139" d="M13.962,0A13.961,13.961,0,1,0,27.924,13.962,13.962,13.962,0,0,0,13.962,0Zm0,4.175A4.618,4.618,0,1,1,9.345,8.794,4.618,4.618,0,0,1,13.962,4.176Zm0,20.1a10.247,10.247,0,0,1-6.673-2.461,1.968,1.968,0,0,1-.691-1.5,4.657,4.657,0,0,1,4.68-4.656h5.374a4.651,4.651,0,0,1,4.673,4.656,1.963,1.963,0,0,1-.69,1.5A10.243,10.243,0,0,1,13.959,24.274Z" transform="translate(0 -0.001)" fill="#4d4d4d"/>
    </g>
  </g>
</svg>
