<svg xmlns="http://www.w3.org/2000/svg" width="28.131" height="28.135" viewBox="0 0 28.131 28.135">
  <g id="Group_240" data-name="Group 240" transform="translate(-137.869 -864.312)">
    <g id="mouse-clicker" transform="translate(137.869 864.312)">
      <path id="Path_132" data-name="Path 132" d="M32.566,30.812a1.978,1.978,0,0,1-.014.231l-.74-.286a.933.933,0,0,0-1.216,1.2c.113.3.222.581.331.862a1.813,1.813,0,0,1-.418.045,2.056,2.056,0,1,1,2.056-2.056Z" transform="translate(-16.906 -17.068)" fill="#4d4d4d"/>
      <path id="Path_133" data-name="Path 133" d="M15.737,3.03a13.609,13.609,0,0,0,.286,27.176.578.578,0,0,0,.591-.581V27.792a.586.586,0,0,0-.545-.591,10.607,10.607,0,1,1,11.14-11.135.586.586,0,0,0,.586.545h1.832a.579.579,0,0,0,.581-.6A13.625,13.625,0,0,0,15.737,3.03Z" transform="translate(-3.008 -3.002)" fill="#4d4d4d"/>
      <path id="Path_134" data-name="Path 134" d="M22.75,15.908A7.773,7.773,0,0,0,23,31.376a.585.585,0,0,0,.637-.581V28.949a.58.58,0,0,0-.517-.577,4.771,4.771,0,1,1,5.261-5.261.58.58,0,0,0,.521.517.173.173,0,0,0,.051,0H30.8A.587.587,0,0,0,31.384,23,7.786,7.786,0,0,0,22.75,15.908Z" transform="translate(-10.03 -10.024)" fill="#4d4d4d"/>
      <path id="Path_135" data-name="Path 135" d="M15.737,3.029A13.608,13.608,0,0,0,16.019,30.2a.578.578,0,0,0,.595-.581V27.79a.584.584,0,0,0-.545-.588A10.607,10.607,0,1,1,27.207,16.064a.584.584,0,0,0,.588.545h1.832a.578.578,0,0,0,.581-.595A13.626,13.626,0,0,0,15.737,3.029Z" transform="translate(-3.006 -3.001)" fill="#4d4d4d"/>
      <path id="Path_136" data-name="Path 136" d="M22.75,15.911A7.772,7.772,0,0,0,23,31.378a.586.586,0,0,0,.637-.581V28.949a.578.578,0,0,0-.518-.574,4.772,4.772,0,1,1,5.261-5.261.578.578,0,0,0,.574.518H30.8A.586.586,0,0,0,31.383,23,7.781,7.781,0,0,0,22.75,15.911Z" transform="translate(-10.03 -10.025)" fill="#4d4d4d"/>
      <g id="Group_96" data-name="Group 96" transform="translate(14.308 14.302)">
        <path id="Path_137" data-name="Path 137" d="M48.266,39.726c-.048-.038.636.233-13.387-5.192a.252.252,0,0,0-.327.327c5.21,13.5,5.115,13.312,5.183,13.4a.254.254,0,0,0,.436-.077l2.051-5.813a.259.259,0,0,1,.154-.154l5.813-2.051A.255.255,0,0,0,48.266,39.726Zm-9.776-1.8a.34.34,0,0,1-.317.218.333.333,0,0,1-.123-.023l-.578-.224a.34.34,0,1,1,.246-.635l.578.224A.34.34,0,0,1,38.49,37.925Zm5.3,2.051a.34.34,0,0,1-.317.218.333.333,0,0,1-.123-.023l-3.843-1.487a.34.34,0,0,1,.246-.635L43.6,39.536A.34.34,0,0,1,43.79,39.976Z" transform="translate(-34.533 -34.516)" fill="#4d4d4d"/>
      </g>
    </g>
  </g>
</svg>
